# xmcd CD database file
#
# Track frame offsets:
#	150
#	12100
#	22855
#	35007
#	50961
#	64961
#	74371
#	87053
#	99702
#	112046
#	124119
#	136754
#	149501
#	162919
#	176916
#	189160
#	203554
#	215180
#	228610
#
# Disc length: 3191 seconds
#
# Revision: 1
# Processed by: cddbd v1.5PL3 Copyright (c) Steve Scherf et al.
# Submitted via: CDex 1.40Release
#
DISCID=1a0c7513
DTITLE=Sonny Terry and Brownie McGhee - My Skin Is Black, My Soul Is Blue CD3
DYEAR=2001
DGENRE=Blues
TTITLE0=Deep Sea River
TTITLE1=Swing Soldier Swing (1.)
TTITLE2=Swing Soldier Swing (2.)
TTITLE3=Lonesome Train
TTITLE4=Sweet Woman
TTITLE5=Fox Chase
TTITLE6=Early Morning Blues
TTITLE7=Riff And Harmonica Jump
TTITLE8=Beer Garden Blues
TTITLE9=Woried Man Blues
TTITLE10=Airplane Blues
TTITLE11=Sreamin´ And Cryin´ Blues
TTITLE12=Custard Pie Blues
TTITLE13=All Alone Blues
TTITLE14=Whoopin´ The Blues
TTITLE15=Hot Headed Woman
TTITLE16=Crow Jane Blues
TTITLE17=Leavin´ Blues
TTITLE18=Harmonica Rag
EXTD=YEAR: 2001 ID3G: 0
EXTT0=
EXTT1=
EXTT2=
EXTT3=
EXTT4=
EXTT5=
EXTT6=
EXTT7=
EXTT8=
EXTT9=
EXTT10=
EXTT11=
EXTT12=
EXTT13=
EXTT14=
EXTT15=
EXTT16=
EXTT17=
EXTT18=
PLAYORDER=
